<svg xmlns="http://www.w3.org/2000/svg" viewBox="0 0 100 100">
  <defs>
    <linearGradient id="bg" x1="0%" y1="0%" x2="100%" y2="100%">
      <stop offset="0%" stop-color="#1A1513" />
      <stop offset="100%" stop-color="#0A0807" />
    </linearGradient>
    <linearGradient id="gold" x1="0%" y1="0%" x2="0%" y2="100%">
      <stop offset="0%" stop-color="#FDE047" />
      <stop offset="100%" stop-color="#B45309" />
    </linearGradient>
    <filter id="glow" x="-20%" y="-20%" width="140%" height="140%">
      <feDropShadow dx="0" dy="4" stdDeviation="6" flood-color="#000000" flood-opacity="0.8" />
    </filter>
  </defs>
  <rect width="100" height="100" rx="20" fill="url(#bg)" />
  <g transform="scale(0.6) translate(35, 30)" filter="url(#glow)">
    <path fill="url(#gold)" d="M50,15 C45,15 41,19 41,24 C41,28 44,31 47,32.5 C40,40 33,52 35,68 C28,68 25,72 25,75 L75,75 C75,72 72,68 65,68 C67,52 60,40 53,32.5 C56,31 59,28 59,24 C59,19 55,15 50,15 Z M30,80 L70,80 L70,85 L30,85 Z" />
    <circle cx="50" cy="10" r="4" fill="url(#gold)" />
  </g>
</svg>
